<svg width="1800" height="420" viewBox="0 0 1800 420" fill="none" xmlns="http://www.w3.org/2000/svg" role="img" aria-label="👾 RESONIX logo">
  <defs>
    <linearGradient id="bg" x1="0" y1="0" x2="1800" y2="420" gradientUnits="userSpaceOnUse">
      <stop stop-color="#0B1020"/>
      <stop offset="1" stop-color="#2A0A4A"/>
    </linearGradient>
    <linearGradient id="wordA" x1="430" y1="95" x2="1160" y2="320" gradientUnits="userSpaceOnUse">
      <stop stop-color="#F5F3FF"/>
      <stop offset="1" stop-color="#DDD6FE"/>
    </linearGradient>
    <linearGradient id="wordB" x1="1120" y1="90" x2="1730" y2="320" gradientUnits="userSpaceOnUse">
      <stop stop-color="#C084FC"/>
      <stop offset="1" stop-color="#7C3AED"/>
    </linearGradient>
    <linearGradient id="icon" x1="78" y1="70" x2="360" y2="320" gradientUnits="userSpaceOnUse">
      <stop stop-color="#A855F7"/>
      <stop offset="1" stop-color="#22D3EE"/>
    </linearGradient>
    <filter id="glow" x="0" y="0" width="1800" height="420" filterUnits="userSpaceOnUse" color-interpolation-filters="sRGB">
      <feDropShadow dx="0" dy="10" stdDeviation="14" flood-color="#0A0A0A" flood-opacity="0.35"/>
    </filter>
  </defs>

  <g filter="url(#glow)">
    <rect x="18" y="18" width="1764" height="384" rx="42" fill="url(#bg)"/>
    <rect x="18" y="18" width="1764" height="384" rx="42" stroke="#4C1D95" stroke-width="2"/>
  </g>

  <g transform="translate(70 60)">
    <rect x="0" y="0" width="300" height="300" rx="60" fill="#090D19" stroke="url(#icon)" stroke-width="8"/>
    <circle cx="95" cy="125" r="18" fill="#22D3EE"/>
    <circle cx="205" cy="125" r="18" fill="#A855F7"/>
    <path d="M98 205C130 230 170 230 202 205" stroke="#E2E8F0" stroke-width="10" stroke-linecap="round"/>
    <line x1="98" y1="80" x2="70" y2="36" stroke="#22D3EE" stroke-width="8" stroke-linecap="round"/>
    <line x1="202" y1="80" x2="230" y2="36" stroke="#A855F7" stroke-width="8" stroke-linecap="round"/>
    <circle cx="66" cy="31" r="10" fill="#22D3EE"/>
    <circle cx="234" cy="31" r="10" fill="#A855F7"/>
  </g>

  <text x="430" y="248" fill="url(#wordA)" font-family="Impact, 'Arial Black', 'Segoe UI', sans-serif" font-size="190" font-weight="900" letter-spacing="4">RESON</text>
  <text x="1120" y="248" fill="url(#wordB)" font-family="Impact, 'Arial Black', 'Segoe UI', sans-serif" font-size="190" font-weight="900" letter-spacing="4">IX</text>
  <text x="432" y="322" fill="#A78BFA" font-family="'Segoe UI', sans-serif" font-size="38" font-weight="700" letter-spacing="2">👾 RESONIX • Autonomous Runtime • Permanent Memory</text>
</svg>
